<svg width="12" height="12" xmlns="http://www.w3.org/2000/svg"><path d="M10.49 6.633c0-.18.062-.362.062-.603s0-.422-.061-.603l1.285-1.025c.123-.12.123-.241.061-.362l-1.224-2.11c-.061-.06-.183-.121-.367-.06l-1.53.602c-.306-.24-.674-.422-1.04-.603L7.43.302C7.492.12 7.308 0 7.185 0H4.737c-.122 0-.306.12-.306.241L4.186 1.87c-.367.12-.673.362-1.04.603l-1.47-.603c-.183-.06-.305 0-.428.12L.024 4.102c-.061.06 0 .24.122.361l1.286.965c0 .181-.061.362-.061.603s0 .422.06.603L.147 7.658c-.122.12-.122.241-.06.362l1.223 2.11c.062.061.184.121.368.061l1.53-.603c.306.241.673.422 1.04.603l.245 1.568c0 .12.123.241.306.241h2.449c.122 0 .306-.12.306-.241l.245-1.568c.367-.18.734-.362 1.04-.603l1.53.603c.123.06.306 0 .368-.12L11.96 7.96c.061-.12.061-.302-.061-.362l-1.408-.965zM5.962 8.141c-1.163 0-2.142-.965-2.142-2.11 0-1.147.98-2.111 2.142-2.111 1.163 0 2.143.964 2.143 2.11s-.98 2.11-2.143 2.11z" fill-rule="evenodd"/></svg>