<svg id="Layer_1" data-name="Layer 1" xmlns="http://www.w3.org/2000/svg" xmlns:xlink="http://www.w3.org/1999/xlink" viewBox="0 0 512 512"><defs><linearGradient id="linear-gradient" x1="256" y1="512" x2="256" gradientUnits="userSpaceOnUse"><stop offset="0" stop-color="#231f20"/><stop offset="1" stop-color="#58595b"/></linearGradient></defs><title>delete</title><path d="M504.22,412.11,348.1,256,504.2,99.89a26.79,26.79,0,0,0,0-37.77L449.87,7.79a26.78,26.78,0,0,0-37.76,0L256,163.89,99.89,7.78a26.8,26.8,0,0,0-37.77,0L7.8,62.11a26.78,26.78,0,0,0,0,37.76L163.9,256,7.79,412.11a26.78,26.78,0,0,0,0,37.76L62.11,504.2a26.81,26.81,0,0,0,37.78,0L256,348.08,412.11,504.22a26.79,26.79,0,0,0,37.76,0l54.35-54.33A26.81,26.81,0,0,0,504.22,412.11Z" fill-rule="evenodd" fill="url(#linear-gradient)"/></svg>