<svg xmlns="http://www.w3.org/2000/svg" viewBox="0 0 120 165"><path d="M80.15 0H6a6 6 0 0 0-6 6v153a6 6 0 0 0 6 6h108a6 6 0 0 0 6-6V39.85z" fill="#e57e25"/><path fill-opacity=".31" d="M80.08 0H80v40h40v-.08L80.08 0z"/><text transform="translate(16.08 105.29)" fill="#fff" font-size="26" font-family="Avenir-Medium,Avenir" letter-spacing=".02em">SHAPE<tspan x="0" y="31.2">FILE</tspan></text><path d="M68 11.5v-6h-6v-6H52v6h6v6h-6v6h6v6h-6v6h6v5h-4l-2 12.12V59.5h16V46.62L66 34.5h-4v-11h6v-6h-6v-6zm-4 37v8h-8v-8z" fill="#fff"/></svg>