<?xml version="1.0" encoding="UTF-8"?>
<svg width="20px" height="20px" viewBox="0 0 20 20" version="1.1" xmlns="http://www.w3.org/2000/svg" xmlns:xlink="http://www.w3.org/1999/xlink">
    <!-- Generator: Sketch 53.2 (72643) - https://sketchapp.com -->
    <title>schedule</title>
    <desc>Created with Sketch.</desc>
    <g id="Builder" stroke="none" stroke-width="1" fill="none" fill-rule="evenodd" fill-opacity="0.4">
        <g id="calendar" transform="translate(-2380.000000, -418.000000)" fill="#000000">
            <g id="schedule" transform="translate(2380.000000, 418.000000)">
                <path d="M10,0 C4.5,0 0,4.5 0,10 C0,15.5 4.5,20 10,20 C15.5,20 20,15.5 20,10 C20,4.5 15.5,0 10,0 L10,0 Z M10,18 C5.6,18 2,14.4 2,10 C2,5.6 5.6,2 10,2 C14.4,2 18,5.6 18,10 C18,14.4 14.4,18 10,18 L10,18 Z" id="Shape"></path>
                <polygon id="Shape" points="10.5 5 9 5 9 11 14.2 14.2 15 12.9 10.5 10.2"></polygon>
            </g>
        </g>
    </g>
</svg>